<?xml version="1.0"?><svg xmlns="http://www.w3.org/2000/svg" version="1.1" width="550" height="550">
<g transform="translate(50 500) scale(5.0 -5.0) translate(0 0) ">
<line x1="0" y1="0" x2="100" y2="0" style="stroke:#a0a0a0;stroke-width:0.2"/>
<text x="0" y="0" style="font-size:2.0px;fill:#000000;font-family:Sans" transform="scale(1 -1)" text-anchor="end">0</text>
<line x1="0" y1="0" x2="0" y2="100" style="stroke:#a0a0a0;stroke-width:0.2"/>
<text x="0" y="0" style="font-size:2.0px;fill:#000000;font-family:Sans" transform="rotate(90 0 0) scale(1 -1)" text-anchor="end">0</text>
<line x1="0" y1="5" x2="100" y2="5" style="stroke:#a0a0a0;stroke-width:0.2"/>
<text x="0" y="-5" style="font-size:2.0px;fill:#000000;font-family:Sans" transform="scale(1 -1)" text-anchor="end">5</text>
<line x1="5" y1="0" x2="5" y2="100" style="stroke:#a0a0a0;stroke-width:0.2"/>
<text x="5" y="0" style="font-size:2.0px;fill:#000000;font-family:Sans" transform="rotate(90 5 0) scale(1 -1)" text-anchor="end">5</text>
<line x1="0" y1="10" x2="100" y2="10" style="stroke:#a0a0a0;stroke-width:0.2"/>
<text x="0" y="-10" style="font-size:2.0px;fill:#000000;font-family:Sans" transform="scale(1 -1)" text-anchor="end">10</text>
<line x1="10" y1="0" x2="10" y2="100" style="stroke:#a0a0a0;stroke-width:0.2"/>
<text x="10" y="0" style="font-size:2.0px;fill:#000000;font-family:Sans" transform="rotate(90 10 0) scale(1 -1)" text-anchor="end">10</text>
<line x1="0" y1="15" x2="100" y2="15" style="stroke:#a0a0a0;stroke-width:0.2"/>
<text x="0" y="-15" style="font-size:2.0px;fill:#000000;font-family:Sans" transform="scale(1 -1)" text-anchor="end">15</text>
<line x1="15" y1="0" x2="15" y2="100" style="stroke:#a0a0a0;stroke-width:0.2"/>
<text x="15" y="0" style="font-size:2.0px;fill:#000000;font-family:Sans" transform="rotate(90 15 0) scale(1 -1)" text-anchor="end">15</text>
<line x1="0" y1="20" x2="100" y2="20" style="stroke:#a0a0a0;stroke-width:0.2"/>
<text x="0" y="-20" style="font-size:2.0px;fill:#000000;font-family:Sans" transform="scale(1 -1)" text-anchor="end">20</text>
<line x1="20" y1="0" x2="20" y2="100" style="stroke:#a0a0a0;stroke-width:0.2"/>
<text x="20" y="0" style="font-size:2.0px;fill:#000000;font-family:Sans" transform="rotate(90 20 0) scale(1 -1)" text-anchor="end">20</text>
<line x1="0" y1="25" x2="100" y2="25" style="stroke:#a0a0a0;stroke-width:0.2"/>
<text x="0" y="-25" style="font-size:2.0px;fill:#000000;font-family:Sans" transform="scale(1 -1)" text-anchor="end">25</text>
<line x1="25" y1="0" x2="25" y2="100" style="stroke:#a0a0a0;stroke-width:0.2"/>
<text x="25" y="0" style="font-size:2.0px;fill:#000000;font-family:Sans" transform="rotate(90 25 0) scale(1 -1)" text-anchor="end">25</text>
<line x1="0" y1="30" x2="100" y2="30" style="stroke:#a0a0a0;stroke-width:0.2"/>
<text x="0" y="-30" style="font-size:2.0px;fill:#000000;font-family:Sans" transform="scale(1 -1)" text-anchor="end">30</text>
<line x1="30" y1="0" x2="30" y2="100" style="stroke:#a0a0a0;stroke-width:0.2"/>
<text x="30" y="0" style="font-size:2.0px;fill:#000000;font-family:Sans" transform="rotate(90 30 0) scale(1 -1)" text-anchor="end">30</text>
<line x1="0" y1="35" x2="100" y2="35" style="stroke:#a0a0a0;stroke-width:0.2"/>
<text x="0" y="-35" style="font-size:2.0px;fill:#000000;font-family:Sans" transform="scale(1 -1)" text-anchor="end">35</text>
<line x1="35" y1="0" x2="35" y2="100" style="stroke:#a0a0a0;stroke-width:0.2"/>
<text x="35" y="0" style="font-size:2.0px;fill:#000000;font-family:Sans" transform="rotate(90 35 0) scale(1 -1)" text-anchor="end">35</text>
<line x1="0" y1="40" x2="100" y2="40" style="stroke:#a0a0a0;stroke-width:0.2"/>
<text x="0" y="-40" style="font-size:2.0px;fill:#000000;font-family:Sans" transform="scale(1 -1)" text-anchor="end">40</text>
<line x1="40" y1="0" x2="40" y2="100" style="stroke:#a0a0a0;stroke-width:0.2"/>
<text x="40" y="0" style="font-size:2.0px;fill:#000000;font-family:Sans" transform="rotate(90 40 0) scale(1 -1)" text-anchor="end">40</text>
<line x1="0" y1="45" x2="100" y2="45" style="stroke:#a0a0a0;stroke-width:0.2"/>
<text x="0" y="-45" style="font-size:2.0px;fill:#000000;font-family:Sans" transform="scale(1 -1)" text-anchor="end">45</text>
<line x1="45" y1="0" x2="45" y2="100" style="stroke:#a0a0a0;stroke-width:0.2"/>
<text x="45" y="0" style="font-size:2.0px;fill:#000000;font-family:Sans" transform="rotate(90 45 0) scale(1 -1)" text-anchor="end">45</text>
<line x1="0" y1="50" x2="100" y2="50" style="stroke:#a0a0a0;stroke-width:0.2"/>
<text x="0" y="-50" style="font-size:2.0px;fill:#000000;font-family:Sans" transform="scale(1 -1)" text-anchor="end">50</text>
<line x1="50" y1="0" x2="50" y2="100" style="stroke:#a0a0a0;stroke-width:0.2"/>
<text x="50" y="0" style="font-size:2.0px;fill:#000000;font-family:Sans" transform="rotate(90 50 0) scale(1 -1)" text-anchor="end">50</text>
<line x1="0" y1="55" x2="100" y2="55" style="stroke:#a0a0a0;stroke-width:0.2"/>
<text x="0" y="-55" style="font-size:2.0px;fill:#000000;font-family:Sans" transform="scale(1 -1)" text-anchor="end">55</text>
<line x1="55" y1="0" x2="55" y2="100" style="stroke:#a0a0a0;stroke-width:0.2"/>
<text x="55" y="0" style="font-size:2.0px;fill:#000000;font-family:Sans" transform="rotate(90 55 0) scale(1 -1)" text-anchor="end">55</text>
<line x1="0" y1="60" x2="100" y2="60" style="stroke:#a0a0a0;stroke-width:0.2"/>
<text x="0" y="-60" style="font-size:2.0px;fill:#000000;font-family:Sans" transform="scale(1 -1)" text-anchor="end">60</text>
<line x1="60" y1="0" x2="60" y2="100" style="stroke:#a0a0a0;stroke-width:0.2"/>
<text x="60" y="0" style="font-size:2.0px;fill:#000000;font-family:Sans" transform="rotate(90 60 0) scale(1 -1)" text-anchor="end">60</text>
<line x1="0" y1="65" x2="100" y2="65" style="stroke:#a0a0a0;stroke-width:0.2"/>
<text x="0" y="-65" style="font-size:2.0px;fill:#000000;font-family:Sans" transform="scale(1 -1)" text-anchor="end">65</text>
<line x1="65" y1="0" x2="65" y2="100" style="stroke:#a0a0a0;stroke-width:0.2"/>
<text x="65" y="0" style="font-size:2.0px;fill:#000000;font-family:Sans" transform="rotate(90 65 0) scale(1 -1)" text-anchor="end">65</text>
<line x1="0" y1="70" x2="100" y2="70" style="stroke:#a0a0a0;stroke-width:0.2"/>
<text x="0" y="-70" style="font-size:2.0px;fill:#000000;font-family:Sans" transform="scale(1 -1)" text-anchor="end">70</text>
<line x1="70" y1="0" x2="70" y2="100" style="stroke:#a0a0a0;stroke-width:0.2"/>
<text x="70" y="0" style="font-size:2.0px;fill:#000000;font-family:Sans" transform="rotate(90 70 0) scale(1 -1)" text-anchor="end">70</text>
<line x1="0" y1="75" x2="100" y2="75" style="stroke:#a0a0a0;stroke-width:0.2"/>
<text x="0" y="-75" style="font-size:2.0px;fill:#000000;font-family:Sans" transform="scale(1 -1)" text-anchor="end">75</text>
<line x1="75" y1="0" x2="75" y2="100" style="stroke:#a0a0a0;stroke-width:0.2"/>
<text x="75" y="0" style="font-size:2.0px;fill:#000000;font-family:Sans" transform="rotate(90 75 0) scale(1 -1)" text-anchor="end">75</text>
<line x1="0" y1="80" x2="100" y2="80" style="stroke:#a0a0a0;stroke-width:0.2"/>
<text x="0" y="-80" style="font-size:2.0px;fill:#000000;font-family:Sans" transform="scale(1 -1)" text-anchor="end">80</text>
<line x1="80" y1="0" x2="80" y2="100" style="stroke:#a0a0a0;stroke-width:0.2"/>
<text x="80" y="0" style="font-size:2.0px;fill:#000000;font-family:Sans" transform="rotate(90 80 0) scale(1 -1)" text-anchor="end">80</text>
<line x1="0" y1="85" x2="100" y2="85" style="stroke:#a0a0a0;stroke-width:0.2"/>
<text x="0" y="-85" style="font-size:2.0px;fill:#000000;font-family:Sans" transform="scale(1 -1)" text-anchor="end">85</text>
<line x1="85" y1="0" x2="85" y2="100" style="stroke:#a0a0a0;stroke-width:0.2"/>
<text x="85" y="0" style="font-size:2.0px;fill:#000000;font-family:Sans" transform="rotate(90 85 0) scale(1 -1)" text-anchor="end">85</text>
<line x1="0" y1="90" x2="100" y2="90" style="stroke:#a0a0a0;stroke-width:0.2"/>
<text x="0" y="-90" style="font-size:2.0px;fill:#000000;font-family:Sans" transform="scale(1 -1)" text-anchor="end">90</text>
<line x1="90" y1="0" x2="90" y2="100" style="stroke:#a0a0a0;stroke-width:0.2"/>
<text x="90" y="0" style="font-size:2.0px;fill:#000000;font-family:Sans" transform="rotate(90 90 0) scale(1 -1)" text-anchor="end">90</text>
<line x1="0" y1="95" x2="100" y2="95" style="stroke:#a0a0a0;stroke-width:0.2"/>
<text x="0" y="-95" style="font-size:2.0px;fill:#000000;font-family:Sans" transform="scale(1 -1)" text-anchor="end">95</text>
<line x1="95" y1="0" x2="95" y2="100" style="stroke:#a0a0a0;stroke-width:0.2"/>
<text x="95" y="0" style="font-size:2.0px;fill:#000000;font-family:Sans" transform="rotate(90 95 0) scale(1 -1)" text-anchor="end">95</text>
<rect x="4" y="0" width="3" height="97.9161032399" style="fill:#008080"/>
<rect x="8" y="0" width="3" height="81.770366614" style="fill:#008080"/>
<rect x="12" y="0" width="3" height="74.8903654451" style="fill:#008080"/>
<rect x="16" y="0" width="3" height="68.5171525698" style="fill:#008080"/>
<rect x="20" y="0" width="3" height="61.027805601" style="fill:#008080"/>
</g></svg>
